<svg width="32" height="32" viewBox="0 0 32 32" fill="none" xmlns="http://www.w3.org/2000/svg">
<path d="M16.0001 2.66602C10.8401 2.66602 6.66675 6.83935 6.66675 11.9993C6.66675 18.9993 16.0001 29.3327 16.0001 29.3327C16.0001 29.3327 25.3334 18.9993 25.3334 11.9993C25.3334 6.83935 21.1601 2.66602 16.0001 2.66602ZM9.33341 11.9993C9.33341 8.31935 12.3201 5.33268 16.0001 5.33268C19.6801 5.33268 22.6667 8.31935 22.6667 11.9993C22.6667 15.8393 18.8267 21.586 16.0001 25.1727C13.2267 21.6127 9.33341 15.7993 9.33341 11.9993Z" fill="white"/>
<path d="M16.0001 15.3327C17.841 15.3327 19.3334 13.8403 19.3334 11.9993C19.3334 10.1584 17.841 8.66602 16.0001 8.66602C14.1591 8.66602 12.6667 10.1584 12.6667 11.9993C12.6667 13.8403 14.1591 15.3327 16.0001 15.3327Z" fill="white"/>
</svg>
