<svg width="32" height="32" viewBox="0 0 32 32" fill="none" xmlns="http://www.w3.org/2000/svg">
<path d="M16.0001 2.66602C8.64008 2.66602 2.66675 8.63935 2.66675 15.9993C2.66675 23.3594 8.64008 29.3327 16.0001 29.3327C23.3601 29.3327 29.3334 23.3594 29.3334 15.9993C29.3334 8.63935 23.3601 2.66602 16.0001 2.66602ZM16.0001 26.666C10.1201 26.666 5.33341 21.8793 5.33341 15.9993C5.33341 10.1193 10.1201 5.33268 16.0001 5.33268C21.8801 5.33268 26.6667 10.1193 26.6667 15.9993C26.6667 21.8793 21.8801 26.666 16.0001 26.666ZM16.4134 14.8527C14.0534 14.2527 13.2934 13.5993 13.2934 12.626C13.2934 11.506 14.3467 10.7193 16.0934 10.7193C17.9334 10.7193 18.6267 11.5993 18.6801 12.906H20.9601C20.8934 11.1193 19.8001 9.47935 17.6401 8.94602V6.66602H14.5334V8.91935C12.5201 9.34602 10.9067 10.6527 10.9067 12.666C10.9067 15.0527 12.8934 16.2527 15.7867 16.946C18.3867 17.5593 18.9067 18.4793 18.9067 19.4394C18.9067 20.146 18.3867 21.2927 16.1067 21.2927C13.9734 21.2927 13.1334 20.3327 13.0134 19.106H10.7201C10.8534 21.3727 12.5334 22.6527 14.5334 23.066V25.3327H17.6534V23.106C19.6801 22.7193 21.2801 21.5594 21.2934 19.4127C21.2801 16.4794 18.7601 15.466 16.4134 14.8527Z" fill="white"/>
</svg>
